<svg width="54" height="54" viewBox="0 0 54 54" fill="none" xmlns="http://www.w3.org/2000/svg">
<circle cx="27" cy="27" r="27" fill="#5374A0"/>
<path d="M34.2395 12H19.4132C15.319 12 12 15.319 12 19.4132V34.2395C12 38.3336 15.319 41.6526 19.4132 41.6526H34.2395C38.3336 41.6526 41.6526 38.3336 41.6526 34.2395V19.4132C41.6526 15.319 38.3336 12 34.2395 12Z" stroke="white" stroke-width="2" stroke-linecap="round" stroke-linejoin="round"/>
<path d="M32.7568 25.8922C32.9398 27.1261 32.729 28.3863 32.1545 29.4936C31.58 30.6008 30.6709 31.4987 29.5567 32.0595C28.4425 32.6203 27.1798 32.8155 25.9482 32.6173C24.7167 32.4192 23.5789 31.8377 22.6969 30.9556C21.8148 30.0736 21.2334 28.9359 21.0352 27.7043C20.837 26.4728 21.0322 25.2101 21.593 24.0958C22.1539 22.9816 23.0517 22.0726 24.159 21.4981C25.2662 20.9235 26.5264 20.7128 27.7603 20.8958C29.0189 21.0824 30.1842 21.6689 31.0839 22.5686C31.9836 23.4683 32.5701 24.6336 32.7568 25.8922Z" stroke="white" stroke-width="2" stroke-linecap="round" stroke-linejoin="round"/>
<path d="M34.9808 18.6718H34.9964" stroke="white" stroke-width="2" stroke-linecap="round" stroke-linejoin="round"/>
</svg>
