<svg width="36" height="52" viewBox="0 0 36 52" fill="none" xmlns="http://www.w3.org/2000/svg">
<path d="M33.7606 40.969L32.0142 46.6778C31.8543 47.2084 31.5852 47.6997 31.2244 48.1204C30.8635 48.541 30.4188 48.8816 29.9187 49.1204C29.4186 49.3592 28.8741 49.491 28.3201 49.5072C27.7661 49.5234 27.2149 49.4237 26.7016 49.2145C21.0407 46.787 16.0281 43.0654 12.0667 38.3488C8.36268 34.0207 5.65708 28.9301 4.14199 23.4386C2.44469 17.4905 2.17238 11.2262 3.34712 5.15325C3.46054 4.61249 3.68532 4.10126 4.00715 3.65213C4.32897 3.203 4.74079 2.8258 5.21638 2.54455C5.69197 2.26329 6.22092 2.08415 6.76954 2.01852C7.31816 1.95289 7.87443 2.00221 8.40295 2.16335L14.1117 3.90973C15.0379 4.18315 15.8332 4.78406 16.3492 5.60045C16.8652 6.41684 17.0667 7.393 16.9162 8.34699C16.5983 10.2476 16.4964 12.1781 16.6125 14.1017C16.6602 14.8611 16.4891 15.6182 16.1197 16.2834C15.7502 16.9486 15.1978 17.494 14.5279 17.8548L11.3719 19.5322C12.6234 25.1249 15.3612 30.2762 19.2966 34.4425L22.4526 32.7651C23.1265 32.4117 23.8875 32.259 24.6456 32.3249C25.4036 32.3908 26.1269 32.6727 26.7297 33.137C28.259 34.3094 29.9161 35.305 31.6694 36.1049C32.5538 36.518 33.2556 37.2419 33.6412 38.1387C34.0268 39.0356 34.0693 40.0429 33.7606 40.969Z" fill="#009150" stroke="#009150" stroke-width="3.97992" stroke-linecap="round" stroke-linejoin="round"/>
</svg>
