<svg width="43" height="51" viewBox="0 0 43 51" fill="none" xmlns="http://www.w3.org/2000/svg">
<path d="M41.6008 21C41.6008 36.5556 21.6008 49.8889 21.6008 49.8889C21.6008 49.8889 1.60077 36.5556 1.60077 21C1.60077 15.6957 3.70791 10.6086 7.45863 6.85786C11.2094 3.10714 16.2964 1 21.6008 1C26.9051 1 31.9922 3.10714 35.7429 6.85786C39.4936 10.6086 41.6008 15.6957 41.6008 21Z" fill="#F45053" stroke="#EE272A" stroke-width="2" stroke-linecap="round" stroke-linejoin="round"/>
<path d="M21.6007 27.6667C25.2826 27.6667 28.2674 24.6819 28.2674 21C28.2674 17.3181 25.2826 14.3333 21.6007 14.3333C17.9189 14.3333 14.9341 17.3181 14.9341 21C14.9341 24.6819 17.9189 27.6667 21.6007 27.6667Z" fill="white" stroke="#EE272A" stroke-width="2" stroke-linecap="round" stroke-linejoin="round"/>
</svg>
