<svg width="54" height="54" viewBox="0 0 54 54" fill="none" xmlns="http://www.w3.org/2000/svg">
<circle cx="27" cy="27" r="27" fill="#465FDD"/>
<path d="M44 13.0151C42.5636 14.0315 40.9732 14.8089 39.29 15.3173C38.3866 14.2753 37.186 13.5368 35.8506 13.2016C34.5151 12.8664 33.1092 12.9507 31.8231 13.4432C30.537 13.9356 29.4327 14.8124 28.6595 15.9549C27.8863 17.0975 27.4815 18.4506 27.5 19.8315V21.3362C24.864 21.4047 22.2519 20.8183 19.8965 19.629C17.5411 18.4397 15.5155 16.6846 14 14.5198C14 14.5198 8 28.0622 21.5 34.081C18.4108 36.1846 14.7307 37.2393 11 37.0905C24.5 44.614 41 37.0905 41 19.7863C40.9986 19.3672 40.9584 18.9491 40.88 18.5374C42.4109 17.0229 43.4912 15.1108 44 13.0151Z" stroke="white" stroke-width="2" stroke-linecap="round" stroke-linejoin="round"/>
</svg>
