<svg width="54" height="54" viewBox="0 0 54 54" fill="none" xmlns="http://www.w3.org/2000/svg">
<circle cx="27" cy="27" r="27" fill="#D8423F"/>
<path d="M18.4479 12L14 17.9305V38.6874C14 39.4738 14.3124 40.228 14.8685 40.7841C15.4246 41.3402 16.1789 41.6526 16.9653 41.6526H37.7221C38.5086 41.6526 39.2628 41.3402 39.8189 40.7841C40.375 40.228 40.6874 39.4738 40.6874 38.6874V17.9305L36.2395 12H18.4479Z" stroke="white" stroke-width="2" stroke-linecap="round" stroke-linejoin="round"/>
<path d="M14 17.9305H40.6874" stroke="white" stroke-width="2" stroke-linecap="round" stroke-linejoin="round"/>
<path d="M33.2742 23.8611C33.2742 25.4339 32.6494 26.9424 31.5372 28.0546C30.425 29.1668 28.9165 29.7916 27.3437 29.7916C25.7708 29.7916 24.2623 29.1668 23.1502 28.0546C22.038 26.9424 21.4131 25.4339 21.4131 23.8611" stroke="white" stroke-width="2" stroke-linecap="round" stroke-linejoin="round"/>
</svg>
