<svg width="44" height="36" viewBox="0 0 44 36" fill="none" xmlns="http://www.w3.org/2000/svg">
<path d="M29.2674 34V30.4444C29.2674 28.5584 28.5182 26.7497 27.1846 25.4161C25.851 24.0825 24.0423 23.3333 22.1563 23.3333H9.71188C7.8259 23.3333 6.01716 24.0825 4.68357 25.4161C3.34997 26.7497 2.60077 28.5584 2.60077 30.4444V34" fill="#F45053"/>
<path d="M29.2674 34V30.4444C29.2674 28.5584 28.5182 26.7497 27.1846 25.4161C25.851 24.0825 24.0423 23.3333 22.1563 23.3333H9.71188C7.8259 23.3333 6.01716 24.0825 4.68357 25.4161C3.34997 26.7497 2.60077 28.5584 2.60077 30.4444V34" stroke="#EF4B5B" stroke-width="3.55556" stroke-linecap="round" stroke-linejoin="round"/>
<path d="M15.934 16.2222C19.8613 16.2222 23.0451 13.0385 23.0451 9.11111C23.0451 5.18375 19.8613 2 15.934 2C12.0066 2 8.82288 5.18375 8.82288 9.11111C8.82288 13.0385 12.0066 16.2222 15.934 16.2222Z" fill="#F45053" stroke="#EF4B5B" stroke-width="3.55556" stroke-linecap="round" stroke-linejoin="round"/>
<path d="M31.0453 16.2222L34.6008 19.7778L41.712 12.6667" fill="#F45053"/>
<path d="M31.0453 16.2222L34.6008 19.7778L41.712 12.6667" stroke="#EF4B5B" stroke-width="3.55556" stroke-linecap="round" stroke-linejoin="round"/>
</svg>
